<svg id="Capa_1" enable-background="new 0 0 512 512" height="512" viewBox="0 0 512 512" width="512" xmlns="http://www.w3.org/2000/svg"><g><g><g><path d="m335.53 469.186c0-14.78 7.603-27.778 19.105-35.318h-309.4c-19.505 0-35.318 15.812-35.318 35.318 0 19.505 15.812 35.317 35.317 35.317h300.593c2.821 0 4.161-3.401 2.159-5.39-7.691-7.642-12.456-18.226-12.456-29.927z" fill="#eaeaea"/></g></g><g><g><path d="m335.529 469.186c0-14.78 7.603-27.778 19.105-35.318h-28.909c-11.503 7.54-19.106 20.537-19.106 35.318v.135c.022 6.992-5.489 12.732-12.481 12.732h-281.792c5.145 13.14 17.925 22.451 32.889 22.451h280.491 20.103c2.821 0 4.16-3.401 2.159-5.389-7.693-7.643-12.459-18.228-12.459-29.929z" fill="#c6d0da"/></g></g><g><g><g><path d="m124.085 486.781-28.079-20.535-28.079 20.535c-2.623 1.918-6.314.045-6.314-3.205v-62.684h68.786v62.684c0 3.25-3.691 5.123-6.314 3.205z" fill="#c73044"/></g></g><g><g><path d="m96.006 420.892v45.354l28.079 20.535c2.623 1.918 6.314.045 6.314-3.205v-62.684z" fill="#952436"/></g></g></g><g><g><path d="m356.19 8.856h-317.315c-15.993 0-28.958 12.965-28.958 28.958v431.372c0-19.505 15.812-35.318 35.318-35.318h20.817 290.138c6.397 0 11.583-5.186 11.583-11.583v-401.846c0-6.397-5.186-11.583-11.583-11.583z" fill="#bed8fb"/></g></g><g><g><path d="m356.19 8.856h-30.888v326.24c0 30.028-24.342 54.37-54.37 54.37h-247.351-13.664v79.719c0-19.505 15.812-35.318 35.318-35.318h20.817 290.138c6.397 0 11.583-5.186 11.583-11.583v-401.845c0-6.397-5.186-11.583-11.583-11.583z" fill="#27a2fb"/></g></g><g><path d="m277.908 126.984c-1.62-.117-3.005-1.196-3.509-2.741-6.536-20.009-25.343-34.468-47.536-34.468-13.709 0-26.122 5.524-35.153 14.46-1.545 1.528-4.036 1.528-5.58 0-9.032-8.936-21.444-14.46-35.154-14.46-22.192 0-41 14.459-47.536 34.468-.504 1.544-1.889 2.624-3.509 2.741-27.085 1.956-48.196 25.47-46.227 53.475 1.675 23.818 20.354 43.347 44.076 46.058.17.019.34.038.509.056 10.373 1.082 18.3 9.722 18.3 20.151v55.115c0 8.281 6.713 14.993 14.993 14.993h114.672c8.281 0 14.993-6.713 14.993-14.993v-55.115c0-10.43 7.929-19.069 18.303-20.151.167-.017.334-.036.501-.055 23.722-2.708 42.403-22.233 44.082-46.049 1.975-28.01-19.137-51.529-46.225-53.485z" fill="#eaeaea"/></g><g><path d="m466.99 367.851v-257.462h-38.216v257.462c0 19.341-2.499 38.595-7.412 57.302-2.425 9.234-3.807 19.866-3.807 31.184 0 35.489 13.578 48.146 30.327 48.146s30.327-12.657 30.327-48.146c0-11.318-1.382-21.95-3.807-31.184-4.913-18.707-7.412-37.961-7.412-57.302z" fill="#eaeaea"/></g><g><path d="m474.402 425.152c-4.913-18.707-7.412-37.96-7.412-57.301v-257.462h-20.493v257.463c0 19.341 2.499 38.595 7.412 57.301 2.425 9.234 3.807 19.866 3.807 31.184 0 27.868-8.374 41.653-20.081 46.29 3.201 1.268 6.65 1.857 10.247 1.857 16.749 0 30.327-12.657 30.327-48.146 0-11.32-1.381-21.952-3.807-31.186z" fill="#c6d0da"/></g><g><path d="m502.082 104.388c0 38.431-24.266 69.586-54.2 69.586s-54.2-31.155-54.2-69.586 24.266-96.891 54.2-96.891c29.934 0 54.2 58.46 54.2 96.891z" fill="#eaeaea"/></g><g><path d="m463.763 12.985c6.852 17.056 10.918 36.135 10.918 51.861 0 38.432-24.266 69.586-54.2 69.586-8.52 0-16.577-2.53-23.749-7.027 7.403 27.116 27.502 46.569 51.15 46.569 29.934 0 54.2-31.155 54.2-69.586 0-31.336-16.135-75.984-38.319-91.403z" fill="#c6d0da"/></g><g><path d="m356.19 1.36h-29.929c-4.141 0-7.497 3.356-7.497 7.497s3.356 7.497 7.497 7.497h29.929c2.253 0 4.086 1.833 4.086 4.086v401.846c0 2.253-1.833 4.086-4.086 4.086h-310.955c-9.14.03-19.687 3.145-27.821 10.296v-52.108c0-4.141-3.356-7.497-7.497-7.497s-7.497 3.356-7.497 7.497v84.626c.001 23.608 19.208 42.814 42.815 42.814h300.593c4.314 0 8.162-2.571 9.804-6.551 1.654-4.011.727-8.585-2.361-11.653-6.606-6.563-10.244-15.304-10.244-24.61 0-11.049 5.21-21.317 14.03-27.865 10.118-.457 18.214-8.807 18.214-19.035v-401.847c-.001-10.521-8.56-19.079-19.081-19.079zm-287.08 440.005h53.792v35.264l-22.47-16.434c-2.636-1.927-6.216-1.927-8.852 0l-22.47 16.434zm267.426 55.642h-291.301c-15.34 0-27.821-12.48-27.821-27.821 0-14.964 14.398-27.822 27.821-27.822h8.882v42.212c0 4.342 2.405 8.259 6.276 10.225 3.872 1.964 8.455 1.593 11.961-.969l23.652-17.298 23.654 17.299c3.421 1.686 5.475 3.471 11.959.968 3.87-1.966 6.275-5.883 6.275-10.225v-42.212h198.641c-5.472 8.089-8.504 17.728-8.504 27.822.002 10.068 2.974 19.673 8.505 27.821z"/><path d="m9.918 355.124c4.141 0 7.497-3.356 7.497-7.497v-309.813c0-11.834 9.627-21.461 21.46-21.461h250.685c4.141 0 7.497-3.356 7.497-7.497s-3.356-7.497-7.497-7.497h-250.685c-20.1 0-36.453 16.353-36.453 36.454v309.813c-.001 4.142 3.355 7.498 7.496 7.498z"/><path d="m131.583 324.329h114.672c12.401 0 22.49-10.089 22.49-22.49v-55.115c0-6.549 4.979-12.006 11.591-12.695l.566-.062c27.442-3.133 48.768-25.41 50.71-52.97 2.175-30.851-20.462-57.855-50.853-61.275-8.351-22.492-29.723-37.442-53.896-37.442-14.095 0-27.441 5.056-37.943 14.31-10.501-9.253-23.848-14.31-37.944-14.31-24.173 0-45.545 14.95-53.896 37.442-30.383 3.423-53.023 30.421-50.854 61.264 1.937 27.563 23.261 49.845 50.703 52.981l.584.064c6.602.688 11.581 6.146 11.581 12.695v55.115c-.001 12.399 10.088 22.488 22.489 22.488zm-32.518-105.212-.434-.047c-20.268-2.317-36.018-18.777-37.449-39.137-1.645-23.39 15.98-43.788 39.289-45.472 4.678-.338 8.641-3.435 10.095-7.891 5.724-17.524 21.964-29.298 40.41-29.298 11.258 0 21.869 4.365 29.879 12.291 4.446 4.402 11.681 4.401 16.128.001 8.011-7.927 18.623-12.292 29.88-12.292 18.446 0 34.686 11.774 40.41 29.298 1.454 4.456 5.418 7.553 10.095 7.891h.001c23.312 1.684 40.937 22.086 39.287 45.481-1.434 20.358-17.186 36.815-37.431 39.126l-.45.049c-14.265 1.488-25.022 13.356-25.022 27.608v55.115c0 4.134-3.363 7.497-7.497 7.497h-114.673c-4.134 0-7.497-3.363-7.497-7.497v-55.115c0-14.252-10.755-26.121-25.021-27.608z"/><path d="m492.899 38.151c-12.426-24.602-28.414-38.151-45.017-38.151s-32.59 13.549-45.016 38.151c-10.288 20.37-16.68 45.75-16.68 66.237 0 30.607 14.354 57.102 35.092 69.537v193.926c0 18.655-2.411 37.293-7.167 55.398-2.651 10.097-4.053 21.538-4.053 33.088 0 50.221 26.451 55.642 37.824 55.642s37.825-5.421 37.825-55.642c0-11.551-1.402-22.993-4.054-33.089-4.755-18.105-7.166-36.743-7.166-55.396v-193.899c4.394-2.608 8.55-5.852 12.35-9.714 2.904-2.952 2.866-7.698-.085-10.602s-7.698-2.866-10.602.085c-8.211 8.345-17.986 12.755-28.269 12.755-25.752 0-46.703-27.853-46.703-62.089 0-37.385 23.534-89.395 46.703-89.395s46.704 52.01 46.704 89.395c0 7.599-1.028 15.022-3.056 22.061-1.146 3.979 1.15 8.133 5.129 9.279 3.975 1.144 8.132-1.151 9.279-5.129 2.417-8.389 3.642-17.208 3.642-26.212 0-20.486-6.392-45.866-16.68-66.236zm-33.405 141.927v187.773c0 19.937 2.576 39.857 7.658 59.205 2.33 8.871 3.562 18.995 3.562 29.28 0 18.543-3.961 40.649-22.832 40.649-18.869 0-22.831-22.105-22.831-40.649 0-10.283 1.232-20.408 3.561-29.28 5.082-19.346 7.659-39.266 7.659-59.206v-187.768c3.763.899 7.641 1.388 11.611 1.388 3.916 0 7.803-.483 11.612-1.392z"/><path d="m150.404 291.169c4.141 0 7.497-3.356 7.497-7.497v-27.992c0-4.141-3.356-7.497-7.497-7.497s-7.497 3.356-7.497 7.497v27.992c0 4.141 3.356 7.497 7.497 7.497z"/><path d="m188.92 291.169c4.141 0 7.497-3.356 7.497-7.497v-27.992c0-4.141-3.356-7.497-7.497-7.497s-7.497 3.356-7.497 7.497v27.992c0 4.141 3.356 7.497 7.497 7.497z"/><path d="m228.234 291.169c4.141 0 7.497-3.356 7.497-7.497v-27.992c0-4.141-3.356-7.497-7.497-7.497s-7.497 3.356-7.497 7.497v27.992c0 4.141 3.356 7.497 7.497 7.497z"/></g></g></svg>