<svg id="FilledOutline" enable-background="new 0 0 64 64" height="60px" viewBox="0 0 64 64" width="60px" xmlns="http://www.w3.org/2000/svg"><path d="m16 10v47c0 2.209 1.791 4 4 4h34v-52c0-3.314-2.686-6-6-6h-39c3.866 0 7 3.134 7 7z" fill="#4ac3ed"/><path d="m36 42v-8l25-25v6.059c0 6.365-2.529 12.47-7.029 16.971l-9.971 9.97z" fill="#e89d43"/><path d="m35 7h-14v5l5.833 5-5.833 5v5h14v-5l-5.833-5 5.833-5z" fill="#f7f4f0"/><path d="m25 27 3-5 3 5z" fill="#e89d43"/><path d="m20 61h37c2.209 0 4-1.791 4-4v-4h-37v4c0 2.209-1.791 4-4 4z" fill="#454a6d"/><g fill="#0d1030"><path d="m61.383 8.076c-.375-.157-.804-.07-1.09.217l-5.293 5.293v-4.586c0-3.859-3.14-7-7-7h-39c-3.925 0-7 3.124-7 7.111 0 3.247 2.691 5.889 6 5.889 2.757 0 5-2.203 5-4.911 0-2.276-1.884-4.129-4.2-4.129-1.963 0-3.56 1.571-3.56 3.503h2c0-.829.7-1.503 1.56-1.503 1.213 0 2.2.955 2.2 2.129 0 1.605-1.346 2.911-3 2.911-2.206 0-4-1.744-4-3.889 0-2.914 2.149-5.111 5-5.111 3.309 0 6 2.691 6 6v47c0 2.757 2.243 5 5 5h37c2.757 0 5-2.243 5-5v-4c0-.553-.448-1-1-1h-6v-19.602c4.514-4.682 7-10.818 7-17.339v-6.059c0-.404-.244-.77-.617-.924zm-1.383 48.924c0 1.654-1.346 3-3 3h-33.002c.628-.836 1.002-1.875 1.002-3v-3h35zm-36-5c-.552 0-1 .447-1 1v4c0 1.654-1.346 3-3 3s-3-1.346-3-3v-47c0-2.39-1.059-4.533-2.726-6h33.726c2.757 0 5 2.243 5 5v6.586l-17.707 17.707c-.188.187-.293.441-.293.707v7.586l-6.707 6.707 1.414 1.414 6.707-6.707h7.586c.265 0 .52-.105.707-.293l8.293-8.293v17.586zm36-36.941c0 6.144-2.393 11.92-6.736 16.264l-9.678 9.677h-5.172l18.293-18.293-1.414-1.414-18.293 18.293v-5.172l23-23z"/><path d="m38 28v-2h-2v-4c0-.292-.127-.569-.349-.759l-4.948-4.241 4.948-4.241c.222-.19.349-.467.349-.759v-4h2v-2h-3-14-3v2h2v4c0 .292.127.569.349.759l4.948 4.241-4.948 4.241c-.222.19-.349.467-.349.759v4h-2v2h3 14zm-11.234-2 1.234-2.057 1.234 2.057zm4.8 0-2.709-4.515c-.361-.602-1.354-.602-1.715 0l-2.708 4.515h-2.434v-3.54l5.484-4.701c.222-.189.349-.467.349-.759s-.127-.569-.349-.759l-5.484-4.701v-3.54h12v3.54l-5.484 4.701c-.222.189-.349.467-.349.759s.127.569.349.759l5.484 4.701v3.54z"/></g></svg>